<mxfile host="app.diagrams.net" agent="Mozilla/5.0 (Macintosh; Intel Mac OS X 10_15_7) AppleWebKit/537.36 (KHTML, like Gecko) Chrome/129.0.0.0 Safari/537.36" version="24.7.17">
  <diagram name="第 1 页" id="E-EqVpPUC8KQxF-GEif7">
    <mxGraphModel dx="4606" dy="5455" grid="1" gridSize="10" guides="1" tooltips="1" connect="1" arrows="1" fold="1" page="1" pageScale="1" pageWidth="3300" pageHeight="4681" math="0" shadow="0">
      <root>
        <mxCell id="0" />
        <mxCell id="1" parent="0" />
        <mxCell id="V5cFmOrCDkgjCt-jMqXi-9" style="edgeStyle=orthogonalEdgeStyle;rounded=0;orthogonalLoop=1;jettySize=auto;html=1;exitX=1;exitY=0.5;exitDx=0;exitDy=0;entryX=0;entryY=0.5;entryDx=0;entryDy=0;" parent="1" source="V5cFmOrCDkgjCt-jMqXi-6" target="V5cFmOrCDkgjCt-jMqXi-7" edge="1">
          <mxGeometry relative="1" as="geometry" />
        </mxCell>
        <mxCell id="V5cFmOrCDkgjCt-jMqXi-6" value="external service" style="rounded=1;whiteSpace=wrap;html=1;fillColor=#dae8fc;strokeColor=#6c8ebf;" parent="1" vertex="1">
          <mxGeometry x="230" y="280" width="120" height="60" as="geometry" />
        </mxCell>
        <mxCell id="V5cFmOrCDkgjCt-jMqXi-13" style="edgeStyle=orthogonalEdgeStyle;rounded=0;orthogonalLoop=1;jettySize=auto;html=1;exitX=1;exitY=0.5;exitDx=0;exitDy=0;entryX=0;entryY=0.5;entryDx=0;entryDy=0;" parent="1" source="V5cFmOrCDkgjCt-jMqXi-7" target="V5cFmOrCDkgjCt-jMqXi-12" edge="1">
          <mxGeometry relative="1" as="geometry" />
        </mxCell>
        <mxCell id="V5cFmOrCDkgjCt-jMqXi-7" value="noti-service" style="rounded=1;whiteSpace=wrap;html=1;fillColor=#f8cecc;strokeColor=#b85450;" parent="1" vertex="1">
          <mxGeometry x="440" y="280" width="120" height="60" as="geometry" />
        </mxCell>
        <mxCell id="V5cFmOrCDkgjCt-jMqXi-11" value="trigger inapp &lt;br&gt;banner noti" style="text;html=1;align=center;verticalAlign=middle;resizable=0;points=[];autosize=1;strokeColor=none;fillColor=none;" parent="1" vertex="1">
          <mxGeometry x="340" y="308" width="90" height="40" as="geometry" />
        </mxCell>
        <mxCell id="V5cFmOrCDkgjCt-jMqXi-12" value="mts client push service" style="rounded=1;whiteSpace=wrap;html=1;fillColor=#fff2cc;strokeColor=#d6b656;" parent="1" vertex="1">
          <mxGeometry x="680" y="280" width="120" height="60" as="geometry" />
        </mxCell>
        <mxCell id="V5cFmOrCDkgjCt-jMqXi-14" value="send inapp &lt;br&gt;banner notification&amp;nbsp;" style="text;html=1;align=center;verticalAlign=middle;resizable=0;points=[];autosize=1;strokeColor=none;fillColor=none;" parent="1" vertex="1">
          <mxGeometry x="560" y="308" width="120" height="40" as="geometry" />
        </mxCell>
        <mxCell id="V5cFmOrCDkgjCt-jMqXi-16" style="edgeStyle=orthogonalEdgeStyle;rounded=0;orthogonalLoop=1;jettySize=auto;html=1;exitX=1;exitY=0.5;exitDx=0;exitDy=0;entryX=0;entryY=0.5;entryDx=0;entryDy=0;entryPerimeter=0;" parent="1" source="V5cFmOrCDkgjCt-jMqXi-12" target="V5cFmOrCDkgjCt-jMqXi-23" edge="1">
          <mxGeometry relative="1" as="geometry">
            <mxPoint x="964.9999999999991" y="310" as="targetPoint" />
          </mxGeometry>
        </mxCell>
        <mxCell id="V5cFmOrCDkgjCt-jMqXi-17" value="user receive inapp &lt;br&gt;banner notification" style="text;html=1;align=center;verticalAlign=middle;resizable=0;points=[];autosize=1;strokeColor=none;fillColor=none;" parent="1" vertex="1">
          <mxGeometry x="810" y="308" width="120" height="40" as="geometry" />
        </mxCell>
        <mxCell id="V5cFmOrCDkgjCt-jMqXi-20" value="" style="rounded=1;whiteSpace=wrap;html=1;" parent="1" vertex="1">
          <mxGeometry x="-400" y="320" width="120" height="60" as="geometry" />
        </mxCell>
        <mxCell id="V5cFmOrCDkgjCt-jMqXi-21" value="" style="rounded=1;whiteSpace=wrap;html=1;" parent="1" vertex="1">
          <mxGeometry x="510" y="1470" width="120" height="60" as="geometry" />
        </mxCell>
        <mxCell id="V5cFmOrCDkgjCt-jMqXi-22" value="" style="rounded=1;whiteSpace=wrap;html=1;" parent="1" vertex="1">
          <mxGeometry x="310" y="-3170" width="120" height="60" as="geometry" />
        </mxCell>
        <mxCell id="V5cFmOrCDkgjCt-jMqXi-23" value="" style="verticalLabelPosition=bottom;html=1;verticalAlign=top;align=center;strokeColor=none;fillColor=#00BEF2;shape=mxgraph.azure.mobile;pointerEvents=1;" parent="1" vertex="1">
          <mxGeometry x="950" y="285" width="35" height="50" as="geometry" />
        </mxCell>
        <mxCell id="lxfgVVIcujhXge4HqQLv-5" style="edgeStyle=orthogonalEdgeStyle;rounded=0;orthogonalLoop=1;jettySize=auto;html=1;exitX=0.5;exitY=1;exitDx=0;exitDy=0;" edge="1" parent="1" source="lxfgVVIcujhXge4HqQLv-1" target="lxfgVVIcujhXge4HqQLv-4">
          <mxGeometry relative="1" as="geometry" />
        </mxCell>
        <mxCell id="lxfgVVIcujhXge4HqQLv-6" style="edgeStyle=orthogonalEdgeStyle;rounded=0;orthogonalLoop=1;jettySize=auto;html=1;exitX=0.5;exitY=1;exitDx=0;exitDy=0;entryX=0.5;entryY=0;entryDx=0;entryDy=0;" edge="1" parent="1" source="lxfgVVIcujhXge4HqQLv-1" target="lxfgVVIcujhXge4HqQLv-3">
          <mxGeometry relative="1" as="geometry" />
        </mxCell>
        <mxCell id="lxfgVVIcujhXge4HqQLv-1" value="Inapp Banner Notification" style="rounded=1;whiteSpace=wrap;html=1;fillColor=#d5e8d4;strokeColor=#82b366;" vertex="1" parent="1">
          <mxGeometry x="610" y="480" width="120" height="60" as="geometry" />
        </mxCell>
        <mxCell id="lxfgVVIcujhXge4HqQLv-11" style="edgeStyle=orthogonalEdgeStyle;rounded=0;orthogonalLoop=1;jettySize=auto;html=1;exitX=0.5;exitY=1;exitDx=0;exitDy=0;" edge="1" parent="1" source="lxfgVVIcujhXge4HqQLv-3" target="lxfgVVIcujhXge4HqQLv-8">
          <mxGeometry relative="1" as="geometry" />
        </mxCell>
        <mxCell id="lxfgVVIcujhXge4HqQLv-12" style="edgeStyle=orthogonalEdgeStyle;rounded=0;orthogonalLoop=1;jettySize=auto;html=1;exitX=0.5;exitY=1;exitDx=0;exitDy=0;entryX=0.5;entryY=0;entryDx=0;entryDy=0;" edge="1" parent="1" source="lxfgVVIcujhXge4HqQLv-3" target="lxfgVVIcujhXge4HqQLv-9">
          <mxGeometry relative="1" as="geometry" />
        </mxCell>
        <mxCell id="lxfgVVIcujhXge4HqQLv-3" value="Promotion And Engagement" style="rounded=1;whiteSpace=wrap;html=1;fillColor=#e1d5e7;strokeColor=#9673a6;" vertex="1" parent="1">
          <mxGeometry x="810" y="590" width="120" height="60" as="geometry" />
        </mxCell>
        <mxCell id="lxfgVVIcujhXge4HqQLv-10" style="edgeStyle=orthogonalEdgeStyle;rounded=0;orthogonalLoop=1;jettySize=auto;html=1;exitX=0.5;exitY=1;exitDx=0;exitDy=0;entryX=0.5;entryY=0;entryDx=0;entryDy=0;" edge="1" parent="1" source="lxfgVVIcujhXge4HqQLv-4" target="lxfgVVIcujhXge4HqQLv-7">
          <mxGeometry relative="1" as="geometry" />
        </mxCell>
        <mxCell id="lxfgVVIcujhXge4HqQLv-4" value="Updates" style="rounded=1;whiteSpace=wrap;html=1;fillColor=#e1d5e7;strokeColor=#9673a6;" vertex="1" parent="1">
          <mxGeometry x="415" y="590" width="120" height="60" as="geometry" />
        </mxCell>
        <mxCell id="lxfgVVIcujhXge4HqQLv-7" value="Chat" style="rounded=1;whiteSpace=wrap;html=1;fillColor=#ffe6cc;strokeColor=#d79b00;" vertex="1" parent="1">
          <mxGeometry x="415" y="690" width="120" height="60" as="geometry" />
        </mxCell>
        <mxCell id="lxfgVVIcujhXge4HqQLv-8" value="Livestreaming" style="rounded=1;whiteSpace=wrap;html=1;fillColor=#ffe6cc;strokeColor=#d79b00;" vertex="1" parent="1">
          <mxGeometry x="710" y="690" width="120" height="60" as="geometry" />
        </mxCell>
        <mxCell id="lxfgVVIcujhXge4HqQLv-9" value="Promotion" style="rounded=1;whiteSpace=wrap;html=1;fillColor=#ffe6cc;strokeColor=#d79b00;" vertex="1" parent="1">
          <mxGeometry x="910" y="690" width="120" height="60" as="geometry" />
        </mxCell>
        <mxCell id="lxfgVVIcujhXge4HqQLv-13" value="Control" style="text;html=1;align=center;verticalAlign=middle;resizable=0;points=[];autosize=1;strokeColor=none;fillColor=none;" vertex="1" parent="1">
          <mxGeometry x="640" y="568" width="60" height="30" as="geometry" />
        </mxCell>
        <mxCell id="lxfgVVIcujhXge4HqQLv-15" value="Control" style="text;html=1;align=center;verticalAlign=middle;resizable=0;points=[];autosize=1;strokeColor=none;fillColor=none;" vertex="1" parent="1">
          <mxGeometry x="840" y="680" width="60" height="30" as="geometry" />
        </mxCell>
        <mxCell id="lxfgVVIcujhXge4HqQLv-16" value="Control" style="text;html=1;align=center;verticalAlign=middle;resizable=0;points=[];autosize=1;strokeColor=none;fillColor=none;" vertex="1" parent="1">
          <mxGeometry x="475" y="660" width="60" height="30" as="geometry" />
        </mxCell>
        <mxCell id="lxfgVVIcujhXge4HqQLv-17" value="Master Toggle" style="text;html=1;align=center;verticalAlign=middle;resizable=0;points=[];autosize=1;strokeColor=none;fillColor=none;" vertex="1" parent="1">
          <mxGeometry x="290" y="495" width="100" height="30" as="geometry" />
        </mxCell>
        <mxCell id="lxfgVVIcujhXge4HqQLv-18" value="Section Toggle" style="text;html=1;align=center;verticalAlign=middle;resizable=0;points=[];autosize=1;strokeColor=none;fillColor=none;" vertex="1" parent="1">
          <mxGeometry x="290" y="605" width="100" height="30" as="geometry" />
        </mxCell>
        <mxCell id="lxfgVVIcujhXge4HqQLv-19" value="Sub Toggle Toggle" style="text;html=1;align=center;verticalAlign=middle;resizable=0;points=[];autosize=1;strokeColor=none;fillColor=none;" vertex="1" parent="1">
          <mxGeometry x="280" y="705" width="120" height="30" as="geometry" />
        </mxCell>
        <mxCell id="lxfgVVIcujhXge4HqQLv-23" value="" style="endArrow=none;dashed=1;html=1;dashPattern=1 3;strokeWidth=2;rounded=0;" edge="1" parent="1">
          <mxGeometry width="50" height="50" relative="1" as="geometry">
            <mxPoint x="300" y="550" as="sourcePoint" />
            <mxPoint x="1040" y="550" as="targetPoint" />
          </mxGeometry>
        </mxCell>
        <mxCell id="lxfgVVIcujhXge4HqQLv-24" value="" style="endArrow=none;dashed=1;html=1;dashPattern=1 3;strokeWidth=2;rounded=0;" edge="1" parent="1">
          <mxGeometry width="50" height="50" relative="1" as="geometry">
            <mxPoint x="300" y="660" as="sourcePoint" />
            <mxPoint x="1040" y="660" as="targetPoint" />
          </mxGeometry>
        </mxCell>
        <mxCell id="lxfgVVIcujhXge4HqQLv-25" value="" style="endArrow=none;dashed=1;html=1;dashPattern=1 3;strokeWidth=2;rounded=0;" edge="1" parent="1">
          <mxGeometry width="50" height="50" relative="1" as="geometry">
            <mxPoint x="300" y="770" as="sourcePoint" />
            <mxPoint x="1040" y="770" as="targetPoint" />
          </mxGeometry>
        </mxCell>
      </root>
    </mxGraphModel>
  </diagram>
</mxfile>
